# xmcd
#
# Track frame offsets:
#	150
#	13908
#	27153
#	37805
#	54807
#	69715
#	80526
#	97421
#	111586
#	122679
#	133721
#	145747
#	159049
#	176692
#	191200
#	202535
#	217068
#	230205
#	239248
#	255289
#
# Disc length: 3583 seconds
#
# Revision: 1
# Processed by: cddbd v1.5PL3 Copyright (c) Steve Scherf et al.
# Submitted via: audiograbber 1.82.01
#
DISCID=210dfd14
DTITLE=El Coyote Y Su Banda - La Historia
DYEAR=2002
DGENRE=Banda
TTITLE0=Amor Pajarito
TTITLE1=Concédeme
TTITLE2=Que Casualidad
TTITLE3=No Puedo Olvidar Tu Voz
TTITLE4=Aprender A Olvidar
TTITLE5=Te Vas Amor
TTITLE6=Te Soñe
TTITLE7=Cuando Regreso A Tus Brazos
TTITLE8=Treinta Cartas
TTITLE9=El Amor No Tiene Edad
TTITLE10=Nunca De Los Nunca
TTITLE11=Arboles De La Barranca
TTITLE12=Un Besito
TTITLE13=Sufro
TTITLE14=Ojitos Negros
TTITLE15=Profundamente
TTITLE16=Amor Imposible
TTITLE17=Necesito Verte
TTITLE18=Aqui Me Quedare
TTITLE19=El Borrego
EXTD=El Coyote y su Banda Tierra Santa
EXTT0=
EXTT1=
EXTT2=
EXTT3=
EXTT4=
EXTT5=
EXTT6=
EXTT7=
EXTT8=
EXTT9=
EXTT10=
EXTT11=
EXTT12=
EXTT13=
EXTT14=
EXTT15=
EXTT16=
EXTT17=
EXTT18=
EXTT19=
PLAYORDER=
